<svg xmlns="http://www.w3.org/2000/svg" viewBox="0 0 400 300" width="400" height="300">
  <defs>
    <linearGradient id="water" x1="0%" y1="0%" x2="0%" y2="100%">
      <stop offset="0%" style="stop-color:#e0f2fe"/>
      <stop offset="100%" style="stop-color:#7dd3fc"/>
    </linearGradient>
  </defs>
  <rect width="400" height="300" fill="url(#water)"/>
  <path d="M0,140 Q50,135 100,140 Q150,145 200,140 Q250,135 300,140 Q350,145 400,140" fill="none" stroke="#0ea5e9" stroke-width="2" opacity="0.6"/>
  <line x1="0" y1="180" x2="400" y2="180" stroke="#38bdf8" stroke-width="1.5" stroke-dasharray="8,4" opacity="0.4"/>
  <rect x="0" y="270" width="400" height="30" fill="#cbd5e1" rx="2"/>
  <g transform="translate(200, 150)">
    <ellipse cx="0" cy="0" rx="55" ry="12" fill="#f97316" opacity="0.9"/>
    <circle cx="-60" cy="-5" r="14" fill="#fbbf24"/>
    <path d="M-74,-5 Q-74,-19 -60,-19 Q-46,-19 -46,-5" fill="#3b82f6"/>
    <ellipse cx="-65" cy="-5" rx="5" ry="3.5" fill="#1e3a5f" opacity="0.8"/>
    <line x1="-45" y1="-5" x2="-95" y2="-18" stroke="#f97316" stroke-width="7" stroke-linecap="round"/>
    <line x1="-95" y1="-18" x2="-110" y2="-12" stroke="#f97316" stroke-width="6" stroke-linecap="round"/>
    <line x1="30" y1="5" x2="65" y2="20" stroke="#f97316" stroke-width="7" stroke-linecap="round"/>
    <line x1="65" y1="20" x2="80" y2="8" stroke="#f97316" stroke-width="6" stroke-linecap="round"/>
    <line x1="50" y1="5" x2="85" y2="15" stroke="#f97316" stroke-width="7" stroke-linecap="round"/>
    <line x1="85" y1="15" x2="105" y2="5" stroke="#f97316" stroke-width="6" stroke-linecap="round"/>
    <line x1="50" y1="5" x2="80" y2="22" stroke="#f97316" stroke-width="7" stroke-linecap="round"/>
    <line x1="80" y1="22" x2="100" y2="18" stroke="#f97316" stroke-width="6" stroke-linecap="round"/>
    <circle cx="-100" cy="-25" r="3" fill="#bae6fd" opacity="0.7"/>
    <circle cx="-90" cy="-28" r="2" fill="#bae6fd" opacity="0.5"/>
  </g>
  <g transform="translate(50, 30)">
    <rect width="120" height="28" rx="14" fill="#0f172a" opacity="0.7"/>
    <text x="60" y="19" text-anchor="middle" fill="white" font-family="Arial,sans-serif" font-size="12" font-weight="bold">SIDE VIEW ✓</text>
  </g>
  <text x="200" y="258" text-anchor="middle" fill="#0369a1" font-family="Arial,sans-serif" font-size="14" font-weight="600">Freestyle – Side View</text>
</svg>
